<?xml version="1.0" standalone="no"?>
<!DOCTYPE svg PUBLIC "-//W3C//DTD SVG 1.1//EN"
   "http://www.w3.org/Graphics/SVG/1.1/DTD/svg11.dtd">
<svg width="230" height="118" version="1.1"
   xmlns="http://www.w3.org/2000/svg">
   <desc>321922017045
   </desc>

   <g id="barcode" fill="#000000">
      <rect x="0" y="0" width="230" height="118" fill="#FFFFFF" />
      <rect x="20.00" y="0.00" width="2.00" height="100.00" />
      <rect x="24.00" y="0.00" width="2.00" height="100.00" />
      <rect x="28.00" y="0.00" width="8.00" height="100.00" />
      <rect x="38.00" y="0.00" width="2.00" height="100.00" />
      <rect x="44.00" y="0.00" width="2.00" height="100.00" />
      <rect x="50.00" y="0.00" width="4.00" height="100.00" />
      <rect x="58.00" y="0.00" width="4.00" height="100.00" />
      <rect x="66.00" y="0.00" width="2.00" height="100.00" />
      <rect x="74.00" y="0.00" width="2.00" height="100.00" />
      <rect x="78.00" y="0.00" width="4.00" height="100.00" />
      <rect x="86.00" y="0.00" width="2.00" height="100.00" />
      <rect x="92.00" y="0.00" width="4.00" height="100.00" />
      <rect x="100.00" y="0.00" width="2.00" height="100.00" />
      <rect x="106.00" y="0.00" width="4.00" height="100.00" />
      <rect x="112.00" y="0.00" width="2.00" height="100.00" />
      <rect x="116.00" y="0.00" width="2.00" height="100.00" />
      <rect x="120.00" y="0.00" width="6.00" height="100.00" />
      <rect x="130.00" y="0.00" width="2.00" height="100.00" />
      <rect x="134.00" y="0.00" width="4.00" height="100.00" />
      <rect x="142.00" y="0.00" width="4.00" height="100.00" />
      <rect x="148.00" y="0.00" width="2.00" height="100.00" />
      <rect x="156.00" y="0.00" width="2.00" height="100.00" />
      <rect x="162.00" y="0.00" width="6.00" height="100.00" />
      <rect x="172.00" y="0.00" width="2.00" height="100.00" />
      <rect x="176.00" y="0.00" width="2.00" height="100.00" />
      <rect x="180.00" y="0.00" width="6.00" height="100.00" />
      <rect x="190.00" y="0.00" width="2.00" height="100.00" />
      <rect x="196.00" y="0.00" width="6.00" height="100.00" />
      <rect x="204.00" y="0.00" width="2.00" height="100.00" />
      <rect x="208.00" y="0.00" width="2.00" height="100.00" />
      <rect x="20.00" y="100.00" width="2.00" height="10.00" />
      <rect x="24.00" y="100.00" width="2.00" height="10.00" />
      <rect x="28.00" y="100.00" width="8.00" height="10.00" />
      <rect x="38.00" y="100.00" width="2.00" height="10.00" />
      <rect x="112.00" y="100.00" width="2.00" height="10.00" />
      <rect x="116.00" y="100.00" width="2.00" height="10.00" />
      <rect x="190.00" y="100.00" width="2.00" height="10.00" />
      <rect x="196.00" y="100.00" width="6.00" height="10.00" />
      <rect x="204.00" y="100.00" width="2.00" height="10.00" />
      <rect x="208.00" y="100.00" width="2.00" height="10.00" />
      <text x="10.00" y="118.00" text-anchor="middle"
         font-family="Helvetica" font-size="16.0" fill="#000000" >
         3
      </text>
      <text x="74.00" y="118.00" text-anchor="middle"
         font-family="Helvetica" font-size="22.0" fill="#000000" >
         21922
      </text>
      <text x="156.00" y="118.00" text-anchor="middle"
         font-family="Helvetica" font-size="22.0" fill="#000000" >
         01704
      </text>
      <text x="220.00" y="118.00" text-anchor="middle"
         font-family="Helvetica" font-size="16.0" fill="#000000" >
         5
      </text>
   </g>
</svg>
