<?xml version="1.0" standalone="no"?>
<!DOCTYPE svg PUBLIC "-//W3C//DTD SVG 1.1//EN"
   "http://www.w3.org/Graphics/SVG/1.1/DTD/svg11.dtd">
<svg width="230" height="118" version="1.1"
   xmlns="http://www.w3.org/2000/svg">
   <desc>639277685810
   </desc>

   <g id="barcode" fill="#000000">
      <rect x="0" y="0" width="230" height="118" fill="#FFFFFF" />
      <rect x="20.00" y="0.00" width="2.00" height="100.00" />
      <rect x="24.00" y="0.00" width="2.00" height="100.00" />
      <rect x="28.00" y="0.00" width="2.00" height="100.00" />
      <rect x="32.00" y="0.00" width="8.00" height="100.00" />
      <rect x="42.00" y="0.00" width="8.00" height="100.00" />
      <rect x="52.00" y="0.00" width="2.00" height="100.00" />
      <rect x="60.00" y="0.00" width="2.00" height="100.00" />
      <rect x="64.00" y="0.00" width="4.00" height="100.00" />
      <rect x="72.00" y="0.00" width="2.00" height="100.00" />
      <rect x="78.00" y="0.00" width="4.00" height="100.00" />
      <rect x="84.00" y="0.00" width="6.00" height="100.00" />
      <rect x="92.00" y="0.00" width="4.00" height="100.00" />
      <rect x="98.00" y="0.00" width="6.00" height="100.00" />
      <rect x="106.00" y="0.00" width="4.00" height="100.00" />
      <rect x="112.00" y="0.00" width="2.00" height="100.00" />
      <rect x="116.00" y="0.00" width="2.00" height="100.00" />
      <rect x="120.00" y="0.00" width="2.00" height="100.00" />
      <rect x="124.00" y="0.00" width="2.00" height="100.00" />
      <rect x="134.00" y="0.00" width="2.00" height="100.00" />
      <rect x="140.00" y="0.00" width="2.00" height="100.00" />
      <rect x="148.00" y="0.00" width="2.00" height="100.00" />
      <rect x="154.00" y="0.00" width="6.00" height="100.00" />
      <rect x="162.00" y="0.00" width="2.00" height="100.00" />
      <rect x="168.00" y="0.00" width="2.00" height="100.00" />
      <rect x="176.00" y="0.00" width="4.00" height="100.00" />
      <rect x="184.00" y="0.00" width="4.00" height="100.00" />
      <rect x="190.00" y="0.00" width="6.00" height="100.00" />
      <rect x="200.00" y="0.00" width="2.00" height="100.00" />
      <rect x="204.00" y="0.00" width="2.00" height="100.00" />
      <rect x="208.00" y="0.00" width="2.00" height="100.00" />
      <rect x="20.00" y="100.00" width="2.00" height="10.00" />
      <rect x="24.00" y="100.00" width="2.00" height="10.00" />
      <rect x="28.00" y="100.00" width="2.00" height="10.00" />
      <rect x="32.00" y="100.00" width="8.00" height="10.00" />
      <rect x="112.00" y="100.00" width="2.00" height="10.00" />
      <rect x="116.00" y="100.00" width="2.00" height="10.00" />
      <rect x="190.00" y="100.00" width="6.00" height="10.00" />
      <rect x="200.00" y="100.00" width="2.00" height="10.00" />
      <rect x="204.00" y="100.00" width="2.00" height="10.00" />
      <rect x="208.00" y="100.00" width="2.00" height="10.00" />
      <text x="10.00" y="118.00" text-anchor="middle"
         font-family="Helvetica" font-size="16.0" fill="#000000" >
         6
      </text>
      <text x="74.00" y="118.00" text-anchor="middle"
         font-family="Helvetica" font-size="22.0" fill="#000000" >
         39277
      </text>
      <text x="156.00" y="118.00" text-anchor="middle"
         font-family="Helvetica" font-size="22.0" fill="#000000" >
         68581
      </text>
      <text x="220.00" y="118.00" text-anchor="middle"
         font-family="Helvetica" font-size="16.0" fill="#000000" >
         0
      </text>
   </g>
</svg>
